<svg viewBox="0 0 40 41" fill="none" xmlns="http://www.w3.org/2000/svg">
<g clip-path="url(#clip0_6211_46077)">
<path d="M39.3993 25.7443C36.7282 36.4587 25.8762 42.9793 15.1606 40.3075C4.44942 37.6363 -2.07115 26.7837 0.601168 16.0702C3.27114 5.35463 14.1231 -1.16643 24.8354 1.50472C35.5503 4.17586 42.0705 15.0297 39.399 25.7445L39.3992 25.7443H39.3993Z" fill="#F7931A"/>
<path d="M28.8191 18.0578C29.2172 15.3962 27.1908 13.9655 24.42 13.0111L25.3189 9.4058L23.1242 8.85894L22.2492 12.3693C21.6722 12.2254 21.0797 12.0898 20.4908 11.9554L21.3722 8.42186L19.1789 7.875L18.2795 11.4791C17.802 11.3704 17.3331 11.263 16.8781 11.1498L16.8807 11.1385L13.8542 10.3827L13.2704 12.7267C13.2704 12.7267 14.8986 13.1 14.8643 13.123C15.753 13.3448 15.9137 13.9331 15.8871 14.3994L14.8631 18.5067C14.9243 18.5222 15.0037 18.5447 15.0913 18.5799C15.0181 18.5617 14.9402 18.5419 14.8593 18.5225L13.4241 24.2763C13.3155 24.5463 13.0398 24.9515 12.4185 24.7976C12.4405 24.8295 10.8234 24.3996 10.8234 24.3996L9.73376 26.9117L12.5898 27.6237C13.1211 27.757 13.6417 27.8964 14.1545 28.0275L13.2463 31.6741L15.4384 32.221L16.3378 28.613C16.9367 28.7756 17.5179 28.9256 18.0868 29.0669L17.1905 32.6579L19.3852 33.2047L20.2933 29.5649C24.0357 30.2732 26.8497 29.9876 28.0341 26.6026C28.9885 23.8773 27.9866 22.3054 26.0177 21.2803C27.4517 20.9496 28.5319 20.0064 28.8199 18.0581L28.8192 18.0576L28.8191 18.0578ZM23.8048 25.0891C23.1265 27.8144 18.538 26.3412 17.0503 25.9718L18.2554 21.1406C19.743 21.512 24.5136 22.2469 23.8049 25.0891H23.8048ZM24.4835 18.0183C23.8648 20.4972 20.0457 19.2378 18.8068 18.929L19.8994 14.5474C21.1383 14.8562 25.128 15.4326 24.4837 18.0183H24.4835Z" fill="white"/>
</g>
<defs>
<clipPath id="clip0_6211_46077">
<rect width="40" height="40" fill="white" transform="translate(0 0.90625)"/>
</clipPath>
</defs>
</svg>
