<svg viewBox="0 0 40 40" fill="none" xmlns="http://www.w3.org/2000/svg">
<path d="M35.0515 26.4062L33.0386 32.9509L29.087 31.9117L35.0515 26.4062Z" fill="#E4761B"/>
<path fill-rule="evenodd" clip-rule="evenodd" d="M35.1346 26.2734L33.066 32.9986L29.0052 31.9307L35.1346 26.2734ZM29.1672 31.8911L33.0098 32.9015L34.9672 26.5379L29.1672 31.8911Z" fill="#E4761B"/>
<path d="M29.087 31.9115L32.8983 26.8901L35.0515 26.4062L29.087 31.9115Z" fill="#E4761B"/>
<path fill-rule="evenodd" clip-rule="evenodd" d="M35.1879 26.3359L29.1151 31.9417L29.0532 31.8897L32.8734 26.8561L35.1879 26.3359ZM32.922 26.9267L29.3964 31.572L34.9138 26.479L32.922 26.9267Z" fill="#E4761B"/>
<path d="M32.09 21.4724L35.0518 26.4066L32.8985 26.8905L32.09 21.4724ZM32.09 21.4724L33.9958 20.2031L35.0518 26.4066L32.09 21.4724Z" fill="#F6851B"/>
<path fill-rule="evenodd" clip-rule="evenodd" d="M34.0255 20.1406L35.0907 26.3988L35.1147 26.4388L32.8637 26.9447L32.05 21.4914L32.035 21.4664L34.0255 20.1406ZM32.161 21.6762L34.9877 26.3858L32.9326 26.8477L32.161 21.6762ZM34.9741 26.2043L32.1445 21.49L33.9652 20.2773L34.9741 26.2043Z" fill="#F6851B"/>
<path d="M29.664 17.7437L35.1419 15.5859L34.8696 16.768L29.664 17.7437ZM34.6964 18.188L29.664 17.7437L34.8696 16.768L34.6964 18.188Z" fill="#763D16"/>
<path fill-rule="evenodd" clip-rule="evenodd" d="M35.1989 15.5234L34.9101 16.7775L34.7324 18.2339L29.6602 17.7861L29.6578 17.7403L29.6484 17.7099L35.1989 15.5234ZM30.0673 17.6306L34.835 16.7369L35.0843 15.6543L30.0673 17.6306ZM29.955 17.7325L34.8218 16.8202L34.6599 18.1478L29.955 17.7325Z" fill="#763D16"/>
<path d="M34.6963 18.1879L33.9951 20.2028L29.664 17.7437L34.6963 18.1879ZM35.7935 16.0857L34.8695 16.7679L35.1418 15.5859L35.7935 16.0857ZM34.6963 18.1879L34.8695 16.7679L35.6037 17.355L34.6963 18.1879Z" fill="#763D16"/>
<path fill-rule="evenodd" clip-rule="evenodd" d="M35.1155 15.5156L35.8601 16.0866L34.9353 16.7695L35.6654 17.3532L34.7319 18.2101L34.0177 20.2622L29.6428 17.7781L29.6675 17.7045L34.6597 18.1452L34.8169 16.8569L34.8044 16.8661L34.8285 16.7616L34.8371 16.691L34.8436 16.6962L35.1155 15.5156ZM34.9013 16.8455L34.7503 18.0835L35.5415 17.3573L34.9013 16.8455ZM34.934 16.6704L35.7262 16.0854L35.1674 15.6569L34.934 16.6704ZM34.6403 18.2231L29.8428 17.7996L33.9718 20.144L34.6403 18.2231Z" fill="#763D16"/>
<path d="M24.8386 30.3203L26.208 30.7408L29.0871 31.9151L24.8386 30.3203Z" fill="#E2761B"/>
<path fill-rule="evenodd" clip-rule="evenodd" d="M24.8231 30.356L24.8506 30.2812L26.2219 30.7022L29.1028 31.8768L29.0717 31.9503L24.8231 30.356ZM26.0713 30.7392L26.4493 30.8811L26.1932 30.7767L26.0713 30.7392Z" fill="#E2761B"/>
<path d="M33.9951 20.2091L34.6963 18.1942L35.2985 18.6384L33.9951 20.2091ZM33.9951 20.2091L28.3112 18.4084L29.6641 17.75L33.9951 20.2091Z" fill="#763D16"/>
<path fill-rule="evenodd" clip-rule="evenodd" d="M29.6659 17.7031L33.9726 20.1483L34.676 18.1272L35.3575 18.6299L34.0278 20.2322L33.9964 20.2158L33.9826 20.2451L28.204 18.4145L29.6659 17.7031ZM34.1086 20.0076L35.2405 18.6436L34.7175 18.2579L34.1086 20.0076ZM33.6456 20.0548L28.4187 18.399L29.6628 17.7935L33.6456 20.0548Z" fill="#763D16"/>
<path d="M31.0168 11.5703L29.664 17.7499L28.3112 18.4083L31.0168 11.5703Z" fill="#763D16"/>
<path fill-rule="evenodd" clip-rule="evenodd" d="M28.3879 18.3252L29.6281 17.7217L30.8682 12.0569L28.3879 18.3252ZM30.9787 11.5547L31.0576 11.577L29.7007 17.7752L28.235 18.4885L30.9787 11.5547Z" fill="#763D16"/>
<path d="M35.1419 15.5922L29.664 17.75L31.0169 11.5703L35.1419 15.5922Z" fill="#763D16"/>
<path fill-rule="evenodd" clip-rule="evenodd" d="M30.9923 11.4844L35.2143 15.6011L29.6075 17.8096L30.9923 11.4844ZM31.0414 11.6452L29.7203 17.6795L35.0691 15.5725L31.0414 11.6452Z" fill="#763D16"/>
<path d="M31.0166 11.5643L36.7338 10.9297L35.1415 15.5862L31.0166 11.5643Z" fill="#763D16"/>
<path fill-rule="evenodd" clip-rule="evenodd" d="M36.7927 10.8828L35.1593 15.66L30.9277 11.5339L36.7927 10.8828ZM31.1053 11.594L35.1232 15.5118L36.6741 10.9758L31.1053 11.594Z" fill="#763D16"/>
<path d="M33.995 20.207L32.0894 21.4763L28.3112 18.4062L33.995 20.207Z" fill="#F6851B"/>
<path fill-rule="evenodd" clip-rule="evenodd" d="M28.2845 18.4352L28.324 18.3672L34.0869 20.1929L32.0871 21.5248L28.2845 18.4352ZM28.5001 18.5065L32.092 21.425L33.9037 20.2184L28.5001 18.5065Z" fill="#F6851B"/>
<path d="M36.4863 6.48438L36.7338 10.9347L31.0166 11.5693L36.4863 6.48438Z" fill="#763D16"/>
<path fill-rule="evenodd" clip-rule="evenodd" d="M36.523 6.39062L36.7774 10.965L30.9009 11.6174L36.523 6.39062ZM31.1332 11.5117L36.6909 10.8948L36.4503 6.56857L31.1332 11.5117Z" fill="#763D16"/>
<path d="M36.4862 6.48438L25.0604 14.4727L24.9119 9.0546L36.4862 6.48438Z" fill="#E2761B"/>
<path fill-rule="evenodd" clip-rule="evenodd" d="M24.9538 9.08554L25.0994 14.3959L36.2977 6.56644L24.9538 9.08554ZM36.4765 6.44531L36.5101 6.51604L25.021 14.5487L24.8696 9.02283L36.4765 6.44531Z" fill="#E2761B"/>
<path d="M16.415 8.39844L24.9122 9.04892L25.0607 14.467L16.415 8.39844Z" fill="#F6851B"/>
<path fill-rule="evenodd" clip-rule="evenodd" d="M16.2725 8.35156L24.9519 9.01601L25.1036 14.5504L16.2725 8.35156ZM16.5568 8.45291L25.0167 14.3912L24.8714 9.08943L16.5568 8.45291Z" fill="#F6851B"/>
<path d="M28.3104 18.4083L25.06 14.4737L31.0163 11.5703L28.3104 18.4083Z" fill="#763D16"/>
<path fill-rule="evenodd" clip-rule="evenodd" d="M31.0929 11.4844L28.3234 18.4834L24.9965 14.4561L31.0929 11.4844ZM25.124 14.4829L28.2978 18.325L30.94 11.6479L25.124 14.4829Z" fill="#763D16"/>
<path d="M28.3112 18.4062L32.0895 21.4763L26.7851 22.0396L28.3112 18.4062Z" fill="#E4761B"/>
<path fill-rule="evenodd" clip-rule="evenodd" d="M28.2935 18.3359L32.1888 21.5009L26.7202 22.0815L28.2935 18.3359ZM28.3274 18.4673L26.8484 21.9881L31.9888 21.4423L28.3274 18.4673Z" fill="#E4761B"/>
<path d="M26.7842 22.0367L25.06 14.4688L28.3103 18.4034L26.7842 22.0367Z" fill="#E4761B"/>
<path fill-rule="evenodd" clip-rule="evenodd" d="M25.0205 14.4785L25.0931 14.4453L28.3584 18.3981L26.7733 22.1718L25.0205 14.4785ZM25.1392 14.6286L26.7967 21.9041L28.2639 18.4113L25.1392 14.6286Z" fill="#E4761B"/>
<path d="M31.0162 11.5693L25.06 14.4727L36.4856 6.48438L31.0162 11.5693Z" fill="#763D16"/>
<path fill-rule="evenodd" clip-rule="evenodd" d="M25.502 14.2138L30.9925 11.5375L36.0342 6.85029L25.502 14.2138ZM25.036 14.4415L36.462 6.45312L36.515 6.51372L31.0408 11.6028L25.0789 14.5089L25.036 14.4415Z" fill="#763D16"/>
<path d="M16.4899 31.7889L19.1875 34.4939L15.5165 31.2812L16.4899 31.7889Z" fill="#C0AD9E"/>
<path fill-rule="evenodd" clip-rule="evenodd" d="M15.4883 31.3064L15.5357 31.2422L16.5148 31.7528L19.2169 34.4623L19.1594 34.519L15.4883 31.3064ZM15.7953 31.4678L18.3178 33.6753L16.4642 31.8166L15.7953 31.4678Z" fill="#C0AD9E"/>
<path d="M29.087 31.9122L30.3657 27.2397L32.8983 26.8906L29.087 31.9122Z" fill="#CD6116"/>
<path fill-rule="evenodd" clip-rule="evenodd" d="M32.9882 26.8438L29.1193 31.9414L29.0461 31.9079L30.3317 27.2099L32.9882 26.8438ZM30.3976 27.2809L29.1815 31.7249L32.8062 26.949L30.3976 27.2809Z" fill="#CD6116"/>
<path d="M5.54979 18.7669L10.2191 14.0469L6.15201 18.2037L5.54979 18.7669Z" fill="#E2761B"/>
<path d="M32.8979 26.8898L30.3652 27.2389L32.0894 21.4717L32.8979 26.8898ZM25.0607 14.467L20.5151 14.3242L16.415 8.39844L25.0607 14.467Z" fill="#F6851B"/>
<path fill-rule="evenodd" clip-rule="evenodd" d="M16.3811 8.4212L16.4398 8.36719L25.1934 14.5117L20.4929 14.364L16.3811 8.4212ZM16.5778 8.56231L20.5381 14.286L24.9286 14.424L16.5778 8.56231ZM30.4228 27.1916L32.8514 26.8569L32.0762 21.6612L30.4228 27.1916ZM32.05 21.4615L32.1305 21.4668L32.9448 26.9242L30.3083 27.2876L32.05 21.4615Z" fill="#F6851B"/>
<path d="M32.0898 21.4766L30.3655 27.2439L30.2253 24.4277L32.0898 21.4766Z" fill="#E4751F"/>
<path fill-rule="evenodd" clip-rule="evenodd" d="M30.2666 24.4349L30.3943 26.9994L31.9643 21.7477L30.2666 24.4349ZM32.0539 21.4531L32.1288 21.4847L30.4047 27.2518L30.3238 27.2428L30.183 24.4145L32.0539 21.4531Z" fill="#E4751F"/>
<path d="M26.7851 22.0398L32.0895 21.4766L30.2251 24.4278L26.7851 22.0398Z" fill="#CD6116"/>
<path fill-rule="evenodd" clip-rule="evenodd" d="M32.168 21.4297L30.2368 24.4863L26.6736 22.0131L32.168 21.4297ZM26.8956 22.0693L30.2127 24.3717L32.0104 21.5262L26.8956 22.0693Z" fill="#CD6116"/>
<path d="M20.5154 14.3281L25.0609 14.4709L26.7851 22.0387L20.5154 14.3281Z" fill="#F6851B"/>
<path fill-rule="evenodd" clip-rule="evenodd" d="M20.4279 14.2812L25.0936 14.4278L26.8246 22.0259L26.7518 22.0588L20.4279 14.2812ZM20.6016 14.3661L26.7053 21.8728L25.0268 14.5051L20.6016 14.3661Z" fill="#F6851B"/>
<path d="M20.5154 14.3296L8.24822 3.41406L16.4153 8.4038L20.5154 14.3296ZM16.4071 33.4477L5.7486 36.6208L3.6202 28.807L16.4071 33.4477Z" fill="#E4761B"/>
<path fill-rule="evenodd" clip-rule="evenodd" d="M8.21963 3.43759L8.26977 3.375L16.4442 8.3693L20.549 14.3022L20.4867 14.3532L8.21963 3.43759ZM8.60995 3.67683L20.2885 14.0688L16.3852 8.42724L8.60995 3.67683ZM3.55954 28.7374L16.5334 33.4461L5.71907 36.6657L3.55954 28.7374ZM3.6798 28.8659L5.77702 36.5654L16.2794 33.4387L3.6798 28.8659Z" fill="#E4761B"/>
<path d="M7.1338 20.718L11.1596 17.6797L14.5337 18.4333L7.1338 20.718Z" fill="#763D16"/>
<path fill-rule="evenodd" clip-rule="evenodd" d="M11.1498 17.6406L14.6887 18.431L7.14649 20.7596L7.10841 20.6906L11.1498 17.6406ZM11.1696 17.7265L7.34036 20.6164L14.379 18.4433L11.1696 17.7265Z" fill="#763D16"/>
<path d="M14.5349 18.4328L11.1608 17.6791L12.9675 10.5078L14.5349 18.4328Z" fill="#763D16"/>
<path fill-rule="evenodd" clip-rule="evenodd" d="M11.2098 17.6511L14.4817 18.3819L12.9617 10.6971L11.2098 17.6511ZM12.9265 10.5L13.0071 10.5019L14.5864 18.4867L11.11 17.7102L12.9265 10.5Z" fill="#763D16"/>
<path d="M6.15208 18.2033L11.1596 17.6797L7.13379 20.718L6.15208 18.2033Z" fill="#763D16"/>
<path fill-rule="evenodd" clip-rule="evenodd" d="M11.2993 17.625L7.11579 20.7823L6.09562 18.1691L11.2993 17.625ZM6.21021 18.2369L7.15344 20.653L11.0215 17.7338L6.21021 18.2369Z" fill="#763D16"/>
<path d="M30.2251 24.4269L28.1462 23.4194L26.7851 22.0391L30.2251 24.4269Z" fill="#CD6116"/>
<path fill-rule="evenodd" clip-rule="evenodd" d="M26.7554 22.0673L26.8095 22.0078L30.2497 24.3955L30.207 24.4631L28.1216 23.4526L26.7554 22.0673ZM27.1184 22.3201L28.1716 23.388L29.78 24.1674L27.1184 22.3201Z" fill="#CD6116"/>
<path d="M6.15279 18.207L5.79806 16.4062L11.1603 17.6835L6.15279 18.207Z" fill="#763D16"/>
<path fill-rule="evenodd" clip-rule="evenodd" d="M5.74586 16.3516L11.1705 17.6436L11.1651 17.7215L6.11965 18.249L5.74586 16.3516ZM5.85085 16.4583L6.18652 18.1622L10.925 17.6668L5.85085 16.4583Z" fill="#763D16"/>
<path d="M27.7174 25.6907L28.1464 23.4219L30.2253 24.4294L27.7174 25.6907Z" fill="#233447"/>
<path fill-rule="evenodd" clip-rule="evenodd" d="M28.1149 23.3594L30.3148 24.4255L27.661 25.7603L28.1149 23.3594ZM28.1763 23.478L27.7723 25.6147L30.1342 24.4268L28.1763 23.478Z" fill="#233447"/>
<path d="M30.3656 27.2458L27.7174 25.691L30.2254 24.4297L30.3656 27.2458Z" fill="#F6851B"/>
<path fill-rule="evenodd" clip-rule="evenodd" d="M30.2627 24.3594L30.4098 27.3125L27.6328 25.682L30.2627 24.3594ZM27.8002 25.6874L30.3199 27.1668L30.1865 24.4872L27.8002 25.6874Z" fill="#F6851B"/>
<path d="M11.1602 17.6791L5.79798 16.402L5.36076 14.8868L11.1602 17.6791ZM12.9669 10.5078L11.1602 17.6791L5.36076 14.8868L12.9669 10.5078ZM12.9669 10.5078L20.5153 14.3235L14.5343 18.4328L12.9669 10.5078Z" fill="#763D16"/>
<path fill-rule="evenodd" clip-rule="evenodd" d="M12.9033 10.595L5.44608 14.8881L11.132 17.6258L12.9033 10.595ZM10.8096 17.5593L5.42497 14.9667L5.83092 16.3735L10.8096 17.5593ZM5.31224 14.8727L5.2747 14.8944L5.32554 14.9188L5.76432 16.4393L11.1455 17.721L11.1877 17.7414L12.9617 10.7001L14.5055 18.5055L20.5933 14.3229L13.0142 10.4916L13.0298 10.4297L12.9652 10.4669L12.91 10.439L12.9206 10.4925L5.35862 14.846L5.29581 14.8158L5.31224 14.8727ZM13.023 10.5857L14.5624 18.3689L20.4364 14.3332L13.023 10.5857Z" fill="#763D16"/>
<path d="M14.5347 18.4373L20.5156 14.3281L23.1802 22.1577L14.5347 18.4373ZM23.1802 22.1577L14.9142 21.9911L14.5347 18.4373L23.1802 22.1577Z" fill="#E4761B"/>
<path fill-rule="evenodd" clip-rule="evenodd" d="M20.5368 14.2656L23.2479 22.2318L23.1705 22.1985L14.8762 22.0313L14.4954 18.4653L14.4515 18.4464L14.4906 18.4196L14.4857 18.3742L14.5293 18.393L20.5368 14.2656ZM14.5824 18.5027L22.977 22.1152L14.9508 21.9535L14.5824 18.5027ZM23.1115 22.0862L14.6166 18.4306L20.4933 14.393L23.1115 22.0862Z" fill="#E4761B"/>
<path d="M7.1338 20.7219L14.5337 18.4373L14.9132 21.9911L7.1338 20.7219ZM26.7843 22.0387L23.1793 22.1577L20.5146 14.3281L26.7843 22.0387Z" fill="#F6851B"/>
<path fill-rule="evenodd" clip-rule="evenodd" d="M20.4753 14.3415L20.547 14.3047L26.8666 22.0768L23.1496 22.1995L20.4753 14.3415ZM20.6269 14.5317L23.2087 22.1181L26.7018 22.0028L20.6269 14.5317ZM14.5694 18.3856L14.9596 22.04L7.12679 20.7621L7.12108 20.6852L14.5694 18.3856ZM7.30722 20.711L14.8665 21.9444L14.4977 18.491L7.30722 20.711Z" fill="#F6851B"/>
<path d="M28.1462 23.4194L27.7172 25.6882L26.7851 22.0391L28.1462 23.4194Z" fill="#CD6116"/>
<path fill-rule="evenodd" clip-rule="evenodd" d="M26.7075 21.8984L28.1901 23.402L27.7574 25.6906L27.6768 25.693L26.7075 21.8984ZM26.8619 22.1703L27.7108 25.4936L28.1015 23.4274L26.8619 22.1703Z" fill="#CD6116"/>
<path d="M8.24809 3.41406L20.5152 14.3296L12.9669 10.5139L8.24809 3.41406Z" fill="#763D16"/>
<path fill-rule="evenodd" clip-rule="evenodd" d="M8.21281 3.43328L8.27559 3.38281L20.5427 14.2984L20.4955 14.3626L12.9375 10.542L8.21281 3.43328ZM8.45528 3.65079L12.9952 10.4816L20.2575 14.1526L8.45528 3.65079Z" fill="#763D16"/>
<path d="M3.6202 28.8031L13.9652 28.3906L16.4071 33.4437L3.6202 28.8031Z" fill="#E4761B"/>
<path fill-rule="evenodd" clip-rule="evenodd" d="M13.9915 28.3516L16.4876 33.5169L3.60612 28.8419L3.61897 28.7652L13.9915 28.3516ZM3.82449 28.8364L16.3276 33.374L13.9399 28.433L3.82449 28.8364Z" fill="#E4761B"/>
<path d="M16.4068 33.4473L13.9649 28.3942L19.0467 28.1562L16.4068 33.4473Z" fill="#CD6116"/>
<path fill-rule="evenodd" clip-rule="evenodd" d="M19.1136 28.1094L16.406 33.5361L13.9014 28.3535L19.1136 28.1094ZM14.0279 28.427L16.4072 33.3504L18.9794 28.1951L14.0279 28.427Z" fill="#CD6116"/>
<path d="M27.7173 25.6847L30.3654 27.2395L31.8256 30.5475L27.7173 25.6847ZM14.9139 21.988L3.6202 28.8023L7.13453 20.7188L14.9139 21.988ZM13.9652 28.3898L3.6202 28.8023L14.9139 21.988L13.9652 28.3898ZM26.7851 22.0356L27.4615 24.3996L24.1947 24.582L26.7851 22.0356ZM24.1947 24.582L23.18 22.1546L26.7851 22.0356L24.1947 24.582Z" fill="#F6851B"/>
<path fill-rule="evenodd" clip-rule="evenodd" d="M7.10891 20.6797L14.9051 21.9517L14.9671 21.9143L14.9602 21.9607L15.0273 21.9716L14.9518 22.0171L14.001 28.4334L3.63264 28.8468L3.53179 28.9076L3.55693 28.8498L3.46645 28.8534L3.58699 28.7807L7.10891 20.6797ZM7.15974 20.7684L3.7082 28.7076L14.8001 22.015L7.15974 20.7684ZM14.8603 22.0723L3.77354 28.7618L13.929 28.3568L14.8603 22.0723ZM26.8309 22.0524L26.8863 21.9979L26.816 22.0002L26.8056 21.9638L26.7669 22.0018L23.1196 22.1222L24.1462 24.5781L24.0905 24.6329L24.1673 24.6286L24.1798 24.6585L24.2128 24.626L27.5146 24.4416L26.8309 22.0524ZM23.24 22.1976L24.2092 24.5162L26.6834 22.0839L23.24 22.1976ZM26.7641 22.118L24.2985 24.5418L27.408 24.3681L26.7641 22.118ZM27.685 25.715L27.7386 25.6562L30.398 27.2176L31.8633 30.5373L31.7933 30.5778L27.685 25.715ZM27.9004 25.8441L31.6734 30.31L30.3324 27.2721L27.9004 25.8441Z" fill="#F6851B"/>
<path d="M19.1867 34.4924L16.4065 33.4453L26.0752 35.008L19.1867 34.4924Z" fill="#C0AD9E"/>
<path fill-rule="evenodd" clip-rule="evenodd" d="M16.3924 33.4823L16.4143 33.4062L26.0828 34.9689L26.0728 35.0476L19.1783 34.5315L16.3924 33.4823ZM16.7926 33.5478L19.1969 34.4533L25.154 34.8992L16.7926 33.5478Z" fill="#C0AD9E"/>
<path d="M7.13371 20.7177L5.54979 18.7663L6.15201 18.2031L7.13371 20.7177Z" fill="#763D16"/>
<path fill-rule="evenodd" clip-rule="evenodd" d="M6.1687 18.1328L7.17258 20.7043L7.10144 20.7427L5.49474 18.7631L6.1687 18.1328ZM5.60529 18.7704L7.00058 20.4895L6.13579 18.2742L5.60529 18.7704Z" fill="#763D16"/>
<path d="M27.1722 33.8499L26.075 35.008L16.4065 33.4453L27.1722 33.8499Z" fill="#D7C1B3"/>
<path fill-rule="evenodd" clip-rule="evenodd" d="M16.3995 33.485L16.4079 33.4062L27.2623 33.8141L26.0902 35.0512L16.3995 33.485ZM17.0505 33.5098L26.0596 34.9658L27.0819 33.8867L17.0505 33.5098Z" fill="#D7C1B3"/>
<path d="M27.6921 31.012L16.4065 33.4473L19.0464 28.1562L27.6921 31.012Z" fill="#E4761B"/>
<path fill-rule="evenodd" clip-rule="evenodd" d="M19.0258 28.1094L27.8439 31.0223L16.3332 33.5064L19.0258 28.1094ZM19.0684 28.2073L16.4812 33.3932L27.5415 31.0063L19.0684 28.2073Z" fill="#E4761B"/>
<path d="M16.4065 33.4432L27.6921 31.0078L27.1724 33.8478L16.4065 33.4432Z" fill="#D7C1B3"/>
<path fill-rule="evenodd" clip-rule="evenodd" d="M27.7438 30.9609L27.2071 33.8935L16.4055 33.4876L16.398 33.4093L27.7438 30.9609ZM16.7242 33.4202L27.1383 33.8115L27.6411 31.0644L16.7242 33.4202Z" fill="#D7C1B3"/>
<path d="M5.36103 14.8894L4.9898 8.78906L12.9672 10.5105L5.36103 14.8894ZM6.15299 18.2053L5.0558 17.1344L5.79826 16.4046L6.15299 18.2053Z" fill="#763D16"/>
<path fill-rule="evenodd" clip-rule="evenodd" d="M4.94464 8.74219L13.0761 10.4969L5.32305 14.9603L4.94464 8.74219ZM5.03339 8.84264L5.39745 14.825L12.8566 10.5308L5.03339 8.84264ZM5.82329 16.3258L6.21797 18.3293L4.99721 17.1378L5.82329 16.3258ZM5.11282 17.1376L6.08645 18.0879L5.77167 16.4899L5.11282 17.1376Z" fill="#763D16"/>
<path d="M21.332 23.727L23.1798 22.1562L22.9159 25.9958L21.332 23.727Z" fill="#CD6116"/>
<path fill-rule="evenodd" clip-rule="evenodd" d="M23.2272 22.0625L22.9486 26.1141L21.277 23.72L23.2272 22.0625ZM21.3858 23.7334L22.8822 25.8767L23.1317 22.2496L21.3858 23.7334Z" fill="#CD6116"/>
<path d="M23.1795 22.1562L21.3316 23.7269L18.6422 25.0676L23.1795 22.1562Z" fill="#CD6116"/>
<path fill-rule="evenodd" clip-rule="evenodd" d="M19.2877 24.703L21.3084 23.6957L22.6968 22.5156L19.2877 24.703ZM18.6196 25.0363L23.1569 22.125L23.2071 22.1877L21.3554 23.7616L18.6615 25.1045L18.6196 25.0363Z" fill="#CD6116"/>
<path d="M31.8256 30.5503L31.3224 30.1933L27.7174 25.6875L31.8256 30.5503Z" fill="#F6851B"/>
<path fill-rule="evenodd" clip-rule="evenodd" d="M27.6849 25.7133L27.7497 25.6641L31.858 30.5268L31.8015 30.5837L31.2936 30.2234L27.6849 25.7133ZM29.6504 28.0396L31.3519 30.1662L31.5894 30.3347L29.6504 28.0396Z" fill="#F6851B"/>
<path d="M18.643 25.07L14.9142 21.9922L23.1802 22.1588L18.643 25.07Z" fill="#CD6116"/>
<path fill-rule="evenodd" clip-rule="evenodd" d="M14.7999 21.9453L23.3123 22.1169L18.6398 25.1149L14.7999 21.9453ZM15.0283 22.0293L18.6461 25.0155L23.0483 22.1909L15.0283 22.0293Z" fill="#CD6116"/>
<path d="M22.916 25.9958L23.18 22.1562L24.1947 24.5837L22.916 25.9958Z" fill="#E4751F"/>
<path fill-rule="evenodd" clip-rule="evenodd" d="M23.1387 22.1528L23.2182 22.1406L24.2423 24.5906L22.8667 26.1096L23.1387 22.1528ZM23.2091 22.3317L22.9651 25.8801L24.1469 24.5751L23.2091 22.3317Z" fill="#E4751F"/>
<path d="M4.69217 15.4935L5.36039 14.8906L5.79762 16.4058L4.69217 15.4935Z" fill="#763D16"/>
<path fill-rule="evenodd" clip-rule="evenodd" d="M5.38163 14.8203L5.87333 16.5243L4.63015 15.4984L5.38163 14.8203ZM4.75363 15.4957L5.72136 16.2944L5.3386 14.9679L4.75363 15.4957Z" fill="#763D16"/>
<path d="M22.9156 25.9953L18.6422 25.0672L21.3316 23.7266L22.9156 25.9953Z" fill="#233447"/>
<path fill-rule="evenodd" clip-rule="evenodd" d="M21.346 23.6797L23.0082 26.0609L18.5237 25.0867L21.346 23.6797ZM18.7622 25.0572L22.8242 25.9396L21.3186 23.7827L18.7622 25.0572Z" fill="#233447"/>
<path d="M12.9672 10.5139L4.9898 8.79251L8.24839 3.41406L12.9672 10.5139Z" fill="#763D16"/>
<path fill-rule="evenodd" clip-rule="evenodd" d="M8.24587 3.33594L13.0549 10.5717L4.92494 8.81733L8.24587 3.33594ZM8.24912 3.48815L5.05294 8.76365L12.8775 10.4521L8.24912 3.48815Z" fill="#763D16"/>
<path d="M26.0751 35.0078L26.5288 36.1977L19.1867 34.4922L26.0751 35.0078Z" fill="#C0AD9E"/>
<path fill-rule="evenodd" clip-rule="evenodd" d="M19.1768 34.5312L19.1897 34.4531L26.1046 34.9707L26.594 36.2542L19.1768 34.5312ZM19.6983 34.5708L26.4634 36.1423L26.0453 35.0459L19.6983 34.5708Z" fill="#C0AD9E"/>
<path d="M19.0464 28.1562L18.6422 25.0703L22.9156 25.9985L19.0464 28.1562Z" fill="#F6851B"/>
<path fill-rule="evenodd" clip-rule="evenodd" d="M18.5942 25.0156L23.0275 25.9785L19.0136 28.217L18.5942 25.0156ZM18.6908 25.1179L19.0799 28.0884L22.8042 26.0113L18.6908 25.1179Z" fill="#F6851B"/>
<path d="M14.9142 21.9922L18.643 25.0701L19.0472 28.1559L14.9142 21.9922Z" fill="#E4751F"/>
<path fill-rule="evenodd" clip-rule="evenodd" d="M14.8789 22.0125L14.9405 21.9609L18.6814 25.0488L19.0877 28.1497L19.0121 28.1762L14.8789 22.0125ZM15.102 22.1988L18.9832 27.9867L18.6036 25.089L15.102 22.1988Z" fill="#E4751F"/>
<path d="M24.1944 24.5862L27.4613 24.4038L31.3221 30.1948L24.1944 24.5862ZM14.9136 21.9922L19.0467 28.156L13.9649 28.394L14.9136 21.9922Z" fill="#F6851B"/>
<path fill-rule="evenodd" clip-rule="evenodd" d="M14.8883 21.8828L19.12 28.1938L13.9169 28.4374L14.8883 21.8828ZM14.9388 22.1045L14.0127 28.3535L18.9732 28.1212L14.9388 22.1045ZM27.4828 24.3643L31.3567 30.1748L31.2958 30.227L24.0863 24.554L27.4828 24.3643ZM24.3023 24.6214L31.147 30.0073L27.4394 24.4462L24.3023 24.6214Z" fill="#F6851B"/>
<path d="M24.1947 24.5859L28.2536 30.5274L22.916 25.9979L24.1947 24.5859Z" fill="#E4751F"/>
<path fill-rule="evenodd" clip-rule="evenodd" d="M24.1995 24.5156L28.2882 30.501L28.2264 30.5525L22.8582 25.9968L24.1995 24.5156ZM22.9742 25.9895L28.0503 30.2972L24.1903 24.6466L22.9742 25.9895Z" fill="#E4751F"/>
<path d="M22.916 26L28.2536 30.5297L27.6926 31.0137L22.916 26Z" fill="#F6851B"/>
<path fill-rule="evenodd" clip-rule="evenodd" d="M22.885 26.0253L22.9427 25.9688L28.315 30.5278L27.6891 31.0677L22.885 26.0253ZM23.4708 26.5227L27.6948 30.9562L28.1909 30.5283L23.4708 26.5227Z" fill="#F6851B"/>
<path d="M27.6926 31.0116L19.047 28.1557L22.916 25.998L27.6926 31.0116ZM31.3224 30.1945L28.2535 30.5276L24.1947 24.5859L31.3224 30.1945Z" fill="#F6851B"/>
<path fill-rule="evenodd" clip-rule="evenodd" d="M24.1604 24.6072L24.221 24.5547L31.4243 30.2227L28.2331 30.5691L24.1604 24.6072ZM24.3773 24.7802L28.2742 30.4848L31.2207 30.1649L24.3773 24.7802ZM22.9242 25.9471L27.7231 30.9841L27.6793 31.0484L18.9483 28.1644L22.9242 25.9471ZM19.146 28.1458L27.5528 30.9227L22.9082 26.0477L19.146 28.1458Z" fill="#F6851B"/>
<path d="M32.1306 32.9844L30.8107 35.5307L26.5293 36.197L32.1306 32.9844ZM26.5293 36.197L26.0756 35.0071L27.1728 33.849L26.5293 36.197Z" fill="#C0AD9E"/>
<path fill-rule="evenodd" clip-rule="evenodd" d="M32.2298 32.8828L30.8377 35.5686L26.5617 36.2341L26.5351 36.3312L26.0276 35.0001L27.1416 33.8241L27.212 33.861L26.5943 36.1152L32.2298 32.8828ZM26.5222 36.0669L27.0894 33.9971L26.1223 35.018L26.5222 36.0669ZM26.7353 36.1267L30.7827 35.4967L32.0304 33.0895L26.7353 36.1267Z" fill="#C0AD9E"/>
<path d="M27.1732 33.849L27.9816 33.5396L26.5298 36.197L27.1732 33.849ZM26.5298 36.197L27.9816 33.5396L32.1311 32.9844L26.5298 36.197Z" fill="#C0AD9E"/>
<path fill-rule="evenodd" clip-rule="evenodd" d="M27.9699 33.5013L27.9538 33.5034L27.9511 33.5085L27.1374 33.8198L26.4899 36.1829L26.4239 36.3035L32.1512 33.0187L32.1244 32.9453L28.0544 33.49L28.0689 33.4634L27.9699 33.5013ZM27.8921 33.6164L26.661 35.8696L27.2066 33.8787L27.8921 33.6164ZM26.6332 36.0912L28.0072 33.5764L31.934 33.0509L26.6332 36.0912Z" fill="#C0AD9E"/>
<path d="M31.3228 30.1953L32.3375 30.7903L29.252 31.1473L31.3228 30.1953Z" fill="#161616"/>
<path fill-rule="evenodd" clip-rule="evenodd" d="M31.3244 30.1484L32.4597 30.8141L29.2564 31.1847L29.2337 31.1095L31.3244 30.1484ZM29.4954 31.0772L32.2136 30.7627L31.3196 30.2385L29.4954 31.0772Z" fill="#161616"/>
<path d="M29.2516 31.1472L28.2534 30.5285L31.3222 30.1953L29.2516 31.1472ZM28.8969 31.6152L32.6504 31.1789L32.1307 32.9875L28.8969 31.6152Z" fill="#161616"/>
<path fill-rule="evenodd" clip-rule="evenodd" d="M28.3727 30.5558L29.2543 31.1022L31.0831 30.2615L28.3727 30.5558ZM31.3174 30.1562L31.3398 30.2314L29.2483 31.1929L28.1335 30.5019L31.3174 30.1562ZM32.7064 31.1328L32.1575 33.0428L28.7425 31.5936L32.7064 31.1328ZM29.0507 31.6376L32.1035 32.9331L32.5941 31.2258L29.0507 31.6376Z" fill="#161616"/>
<path d="M32.1311 32.9828L27.9814 33.5381L28.8972 31.6103L32.1311 32.9828ZM27.9814 33.5381L27.173 33.8475L27.6927 31.0074L27.9814 33.5381ZM27.6927 31.0074L28.2537 30.5234L29.2519 31.1422L27.6927 31.0074ZM32.3374 30.7852L32.6509 31.174L28.8972 31.6103L32.3374 30.7852Z" fill="#161616"/>
<path fill-rule="evenodd" clip-rule="evenodd" d="M28.2493 30.4766L29.274 31.1117L29.2479 31.1846L27.739 31.054L28.0059 33.3933L28.8763 31.561L28.9006 31.5713L32.3531 30.7433L32.7276 31.2078L29.051 31.6351L32.2801 33.0055L27.9918 33.5794L27.1193 33.9132L27.6441 31.0458L27.5944 31.0415L28.2493 30.4766ZM27.683 31.2908L27.2262 33.787L27.9368 33.515L27.683 31.2908ZM28.05 33.4915L28.9175 31.6652L31.9813 32.9654L28.05 33.4915ZM29.551 31.4971L32.5732 31.1458L32.3208 30.8328L29.551 31.4971ZM27.7906 30.9789L29.0885 31.0911L28.2576 30.576L27.7906 30.9789Z" fill="#161616"/>
<path d="M28.8965 31.6141L29.2512 31.146L32.3366 30.7891L28.8965 31.6141ZM27.6921 31.0112L28.8965 31.6141L27.9808 33.5417L27.6921 31.0112Z" fill="#161616"/>
<path fill-rule="evenodd" clip-rule="evenodd" d="M29.2741 31.1837L28.9968 31.5495L31.6856 30.9047L29.2741 31.1837ZM28.8841 31.5634L29.2286 31.109L32.3319 30.75L32.3468 30.8279L28.9258 31.6482L27.9561 33.6895L27.6426 30.942L28.8841 31.5634ZM28.835 31.6283L27.7415 31.0809L28.0055 33.3946L28.8235 31.6728L28.7963 31.6793L28.835 31.6283Z" fill="#161616"/>
<path d="M29.2512 31.1427L28.8965 31.6108L27.6921 31.0078L29.2512 31.1427Z" fill="#161616"/>
<path fill-rule="evenodd" clip-rule="evenodd" d="M27.6737 31.0434L27.6964 30.9688L29.328 31.1099L28.9095 31.6622L27.6737 31.0434ZM27.8969 31.0658L28.8847 31.5603L29.1756 31.1764L27.8969 31.0658Z" fill="#161616"/>
</svg>
