<svg viewBox="0 0 40 40" fill="none" xmlns="http://www.w3.org/2000/svg">
<path d="M21.7946 30.4037C21.803 30.1385 21.758 29.8744 21.6624 29.627C21.5667 29.3796 21.4223 29.1539 21.2377 28.9634C21.0531 28.7729 20.8321 28.6214 20.5879 28.518C20.3436 28.4145 20.0811 28.3612 19.8158 28.3612C19.5506 28.3612 19.288 28.4145 19.0437 28.518C18.7995 28.6214 18.5785 28.7729 18.3939 28.9634C18.2093 29.1539 18.0649 29.3796 17.9693 29.627C17.8736 29.8744 17.8286 30.1385 17.837 30.4037C17.8533 30.9176 18.0689 31.4051 18.4382 31.7629C18.8075 32.1207 19.3016 32.3208 19.8158 32.3208C20.33 32.3208 20.8241 32.1207 21.1934 31.7629C21.5627 31.4051 21.7783 30.9176 21.7946 30.4037Z" fill="black"/>
<path d="M21.2813 14.8408C21.23 14.4676 21.0388 14.1278 20.7465 13.8901C20.4541 13.6525 20.0824 13.5347 19.7066 13.5606C19.3307 13.5866 18.9787 13.7543 18.7218 14.0298C18.4649 14.3054 18.3222 14.6682 18.3226 15.045L18.3305 23.9649L18.3444 24.167C18.3957 24.5403 18.5869 24.8801 18.8792 25.1177C19.1716 25.3554 19.5432 25.4732 19.9191 25.4472C20.295 25.4213 20.647 25.2536 20.9039 24.9781C21.1608 24.7025 21.3035 24.3397 21.3031 23.9629L21.2992 19.502L21.2952 15.041L21.2813 14.8408Z" fill="black"/>
<path fill-rule="evenodd" clip-rule="evenodd" d="M15.9147 3.96489C17.6111 0.897119 22.0205 0.897119 23.7169 3.96489L39.0677 31.7116C40.7126 34.6843 38.5623 38.3307 35.1656 38.3307H4.46801C1.06928 38.3307 -1.08094 34.6843 0.56393 31.7116L15.9147 3.96489ZM21.6624 29.627C21.758 29.8744 21.803 30.1385 21.7946 30.4037C21.7783 30.9176 21.5627 31.4051 21.1934 31.7629C20.8241 32.1207 20.33 32.3208 19.8158 32.3208C19.3016 32.3208 18.8075 32.1207 18.4382 31.7629C18.0689 31.4051 17.8533 30.9176 17.837 30.4037C17.8286 30.1385 17.8736 29.8744 17.9693 29.627C18.0649 29.3796 18.2093 29.1539 18.3939 28.9634C18.5785 28.7729 18.7995 28.6214 19.0437 28.518C19.288 28.4145 19.5506 28.3612 19.8158 28.3612C20.0811 28.3612 20.3436 28.4145 20.5879 28.518C20.8321 28.6214 21.0531 28.7729 21.2377 28.9634C21.4223 29.1539 21.5667 29.3796 21.6624 29.627ZM20.7465 13.8901C21.0388 14.1278 21.23 14.4676 21.2813 14.8408L21.2952 15.041L21.2992 19.502L21.3031 23.9629C21.3035 24.3397 21.1608 24.7025 20.9039 24.9781C20.647 25.2536 20.295 25.4213 19.9191 25.4472C19.5432 25.4732 19.1716 25.3554 18.8792 25.1177C18.5869 24.8801 18.3957 24.5403 18.3444 24.167L18.3305 23.9649L18.3226 15.045C18.3222 14.6682 18.4649 14.3054 18.7218 14.0298C18.9787 13.7543 19.3307 13.5866 19.7066 13.5606C20.0824 13.5347 20.4541 13.6525 20.7465 13.8901Z" fill="#D79C04"/>
</svg>
